<svg id="Capa_1" data-name="Capa 1" xmlns="http://www.w3.org/2000/svg" viewBox="0 0 36.54 50.09">
  <defs>
    <style>
      .cls-1 {
        fill: #05c452;
      }
    </style>
  </defs>
  <path class="cls-1" d="M35.85,48.56c-.69.96-1.8,1.53-2.98,1.53h-.06c-1.58,0-2.98-1.01-3.48-2.51L17.37,11.75l-10.15,30.27c-.5,1.5-1.9,2.51-3.48,2.51h-.06c-1.18,0-2.29-.57-2.98-1.53s-.87-2.19-.5-3.32L12.66,2.51c.5-1.5,1.91-2.51,3.48-2.51h2.48c1.58,0,2.99,1.01,3.49,2.51l14.24,42.74c.37,1.12.19,2.35-.51,3.31Z"/>
  <path class="cls-1" d="M13.69,33.3c0-2.36,1.91-4.27,4.27-4.27s4.27,1.91,4.27,4.27-1.91,4.27-4.27,4.27-4.27-1.91-4.27-4.27Z"/>
</svg>